<svg xmlns="http://www.w3.org/2000/svg" width="155" height="24" viewBox="0 0 155 24">
    <g fill="none" fill-rule="evenodd">
        <g fill="#FFF" fill-rule="nonzero">
            <path d="M374.167 64.219c3.873 0 7.013 3.135 7.013 7.002s-3.14 7.002-7.013 7.002c-1.674 0-3.257-.588-4.51-1.64v6.167c0 .69-.56 1.25-1.25 1.25-.692 0-1.252-.56-1.252-1.25V71.605c0-.04.002-.081.005-.108-.003-.092-.005-.184-.005-.276 0-3.867 3.14-7.002 7.012-7.002zM316.15 62.99c4.934 0 8.933 3.994 8.933 8.92 0 4.836-3.86 8.788-8.69 8.917h-.023c-.073.002-.147.003-.22.003-.073 0-.146 0-.217-.002h-8.915l-.085.002c-4.934 0-8.933-3.993-8.933-8.92 0-4.926 4-8.92 8.933-8.92.125 0 .25.003.371.008h8.707c.046-.005.092-.008.14-.008zm37.747 1.473l4.238 4.978 4.018-4.747c.446-.527 1.236-.593 1.763-.147.528.446.594 1.235.148 1.762l-4.285 5.064 4.095 4.81c.448.526.384 1.315-.143 1.763-.526.447-1.316.384-1.763-.142l-3.827-4.496-4.178 4.936c-.446.527-1.235.593-1.763.147-.527-.447-.593-1.235-.147-1.762l4.444-5.252-4.506-5.294c-.448-.525-.384-1.314.143-1.762.526-.447 1.316-.384 1.763.142zm53.306-.245c3.238 0 5.932 2.466 6.223 5.655.01.065.015.13.015.196.008.127.012.255.012.384l-.012.011v6.916c0 .69-.56 1.25-1.251 1.25-.691 0-1.252-.56-1.252-1.25V70.16c-.151-1.936-1.776-3.441-3.735-3.441-2.07 0-3.747 1.673-3.747 3.736v6.927c0 .69-.56 1.25-1.252 1.25-.69 0-1.251-.56-1.251-1.25V65.468c0-.69.56-1.25 1.251-1.25.69 0 1.249.557 1.252 1.245 1.071-.802 2.375-1.244 3.747-1.244zm-16.52 0c3.872 0 7.012 3.135 7.012 7.002v6.16c0 .69-.56 1.25-1.252 1.25-.69 0-1.251-.56-1.251-1.25v-.797c-1.252 1.051-2.835 1.64-4.51 1.64-3.873 0-7.012-3.136-7.012-7.003s3.14-7.002 7.012-7.002zm28.028 0c.691-.005 1.255.551 1.26 1.241l.074 11.721c.004.69-.553 1.254-1.244 1.258-.691.004-1.255-.552-1.26-1.242l-.073-11.72c-.005-.691.552-1.254 1.243-1.258zM306.933 65.49c-3.551 0-6.43 2.874-6.43 6.42s2.879 6.42 6.43 6.42l.026.001h2.991c-1.732-1.667-2.732-3.963-2.732-6.42 0-.69.56-1.25 1.251-1.25h4.772c-.589-2.982-3.22-5.171-6.308-5.171zm9.147-.002h-2.948c1.733 1.667 2.733 3.965 2.733 6.422 0 .69-.56 1.25-1.251 1.25h-4.772c.589 2.981 3.22 5.17 6.308 5.17 3.551 0 6.43-2.874 6.43-6.42s-2.879-6.42-6.43-6.42c-.036 0-.037 0-.07-.002zm129.908-1.27c3.872 0 7.012 3.135 7.012 7.002 0 .69-.56 1.25-1.251 1.25h-10.025c.29 1.092.994 2.032 1.957 2.62.692.412 1.483.633 2.307.633.048 0 .095.003.142.008 1.112-.038 2.28-.469 2.996-1.104.535-.475 1.355-.427 1.831.108s.428 1.354-.108 1.83c-1.232 1.093-3.09 1.76-4.876 1.76-3.7 0-6.754-2.88-6.976-6.55-.015-.183-.022-.369-.022-.555 0-3.867 3.14-7.002 7.013-7.002zm-103.829 0c3.873 0 7.013 3.135 7.013 7.002 0 .69-.56 1.25-1.252 1.25h-10.027c.279 1.053.944 1.965 1.856 2.557.716.452 1.545.696 2.41.696.048 0 .095.003.142.008 1.111-.038 2.278-.47 2.993-1.104.536-.475 1.356-.427 1.832.108s.428 1.354-.108 1.83c-1.232 1.093-3.09 1.76-4.876 1.76-3.757 0-6.839-2.966-6.984-6.702-.007-.134-.011-.268-.011-.403 0-3.867 3.14-7.002 7.012-7.002zm88.466 0c1.533 0 3.006.494 4.222 1.41.551.416.66 1.2.244 1.75-.416.552-1.2.661-1.752.245-.782-.59-1.726-.906-2.714-.906-2.49 0-4.51 2.016-4.51 4.503s2.02 4.503 4.51 4.503c.99 0 1.934-.318 2.717-.909.551-.416 1.336-.307 1.753.243.417.551.308 1.335-.244 1.751-1.216.918-2.69 1.414-4.226 1.414-3.873 0-7.012-3.135-7.012-7.002s3.14-7.002 7.012-7.002zm-56.458 2.499c-2.49 0-4.51 2.016-4.51 4.503s2.02 4.503 4.51 4.503c2.491 0 4.51-2.016 4.51-4.503s-2.019-4.503-4.51-4.503zm16.515 0c-2.49 0-4.51 2.016-4.51 4.503s2.02 4.503 4.51 4.503c2.49 0 4.51-2.016 4.51-4.503s-2.02-4.503-4.51-4.503zm55.306 0c-2.026 0-3.784 1.345-4.334 3.253h8.667c-.55-1.908-2.307-3.253-4.333-3.253zm-103.829 0c-2.026 0-3.783 1.345-4.334 3.253h8.668c-.55-1.908-2.308-3.253-4.334-3.253zM418.72 60c.691 0 1.251.56 1.251 1.25s-.56 1.25-1.251 1.25c-.691 0-1.251-.56-1.251-1.25s.56-1.25 1.251-1.25z" transform="translate(-298 -60)"/>
        </g>
    </g>
</svg>
